<?xml version="1.0" encoding="UTF-8"?>
<svg width="160px" height="160px" viewBox="0 0 160 160" version="1.1" xmlns="http://www.w3.org/2000/svg" xmlns:xlink="http://www.w3.org/1999/xlink">
    <!-- Generator: sketchtool 59.1 (101010) - https://sketch.com -->
    <title>B228D698-60BE-4511-B76A-A39571D5C883@2x</title>
    <desc>Created with sketchtool.</desc>
    <defs>
        <polygon id="path-1" points="0 0.259726292 101.266352 0.259726292 101.266352 62 0 62"></polygon>
    </defs>
    <g id="Page-1" stroke="none" stroke-width="1" fill="none" fill-rule="evenodd">
        <g id="New-User" transform="translate(-1154.000000, -170.000000)">
            <g id="Group-16" transform="translate(1154.000000, 170.000000)">
                <rect id="Rectangle" fill="#E6E6E6" x="0" y="0" width="160" height="160"></rect>
                <g id="Group-6" transform="translate(29.000000, 20.000000)">
                    <g id="Group-3" transform="translate(0.000000, 62.000000)">
                        <mask id="mask-2" fill="white">
                            <use xlink:href="#path-1"></use>
                        </mask>
                        <g id="Clip-2"></g>
                        <path d="M51.0341308,61.9550103 C39.6650538,61.9605744 28.2951923,62.0001081 16.9253308,61.950241 C4.07568462,61.8938051 -2.42406923,53.6470103 0.8313,41.0490872 C4.98191538,24.9863179 12.6805615,11.1634974 26.5494231,1.49388205 C28.7047615,-0.00842564103 30.3281308,-0.178528205 32.8451769,1.20057436 C44.4849462,7.57942051 56.3742231,7.62631795 68.0681308,1.28642051 C70.6244077,-0.0990410256 72.4337308,-0.0648615385 74.7640385,1.60754872 C89.4520385,12.1507282 97.4080385,27.0100615 100.952146,44.3883436 C102.860331,53.7423949 95.8403769,61.7586769 86.3182846,61.9057282 C74.5592538,62.0877538 62.7955154,61.9494462 51.0341308,61.9550103" id="Fill-1" fill="#F2F2F2" mask="url(#mask-2)"></path>
                    </g>
                    <path d="M81.9993033,30.966342 C81.8832157,48.263509 67.8997906,62.0895104 50.6169501,62 C33.1809055,61.9080525 18.9684641,47.9913221 19,31.0390816 C19.0308513,13.915551 33.5078462,-0.147440741 50.9509981,0.00116706996 C68.098798,0.146646295 82.1138115,14.123602 81.9993033,30.966342" id="Fill-4" fill="#F2F2F2"></path>
                </g>
            </g>
        </g>
    </g>
</svg>